<?xml version="1.0" standalone="no"?>
<!DOCTYPE svg PUBLIC "-//W3C//DTD SVG 1.1//EN"
  "http://www.w3.org/Graphics/SVG/1.1/DTD/svg11.dtd">
<svg width="18.000000476837158mm" height="17.99999952316284mm" viewBox="1.3670001029968262 -19.632999420166012 18.000000476837158 17.99999952316284" xmlns="http://www.w3.org/2000/svg" version="1.1">
	<title>svgOutput</title>
	<desc>made with tinkercad</desc>
<path d="M 18.367000579833984 -12.187199592590328 L 18.36699104309082 -12.187080383300778 L 18.14699935913086 -9.031200408935545 L 18.07360076904297 -7.97919988632202 L 16.384000778198242 -5.474589347839355 L 16.304000854492188 -5.355999946594237 L 15.714200019836426 -4.481599807739257 L 15.71410083770752 -4.481551647186278 L 12.870200157165527 -3.095200061798095 L 11.922200202941895 -2.6329998970031734 L 11.922080039978027 -2.633008241653442 L 8.766200065612793 -2.852999925613403 L 7.714200019836426 -2.926399946212768 L 5.091000080108643 -4.696000099182128 L 4.216599941253662 -5.285799980163573 L 4.216551303863525 -5.28589916229248 L 2.367000102996826 -9.077799797058104 L 2.661400079727173 -13.28579998016357 L 4.431000232696533 -15.909000396728512 L 4.751396656036377 -16.38400077819824 L 5.0208001136779785 -16.783399581909176 L 5.020899295806885 -16.78344917297363 L 8.812800407409668 -18.632999420166012 L 13.02079963684082 -18.338600158691403 L 15.644000053405762 -16.56900024414062 L 15.918269157409668 -16.38400077819824 L 16.384000778198242 -16.06985473632812 L 16.518400192260742 -15.979200363159176 L 17.904800415039062 -13.135199546813961 L 18.367000579833984 -12.187199592590328 z" fill="none" stroke="rgb(255,0,0)" stroke-width="0.001mm" />
</svg>